<mxfile host="app.diagrams.net" modified="2021-01-06T10:35:28.725Z" agent="5.0 (Windows NT 10.0; Win64; x64) AppleWebKit/537.36 (KHTML, like Gecko) Chrome/87.0.4280.88 Safari/537.36" etag="lunmJroUrhnI9SCtj8Ea" version="14.1.8" type="github" pages="2">
  <diagram id="06YiXvvxvD93IUthj2dQ" name="simple version">
    <mxGraphModel dx="1422" dy="827" grid="1" gridSize="10" guides="1" tooltips="1" connect="1" arrows="1" fold="1" page="1" pageScale="1" pageWidth="827" pageHeight="1169" math="0" shadow="0">
      <root>
        <mxCell id="0" />
        <mxCell id="1" parent="0" />
        <mxCell id="hlqRaPhQaMiVC_JoWC2D-1" value="&lt;u style=&quot;font-weight: bold&quot;&gt;User&lt;/u&gt;&lt;br&gt;id: uuid&lt;br&gt;username: String&lt;br&gt;password: String&lt;br&gt;email: String&lt;br&gt;avatar: int&lt;br&gt;status: String" style="ellipse;whiteSpace=wrap;html=1;aspect=fixed;" parent="1" vertex="1">
          <mxGeometry x="60" y="170" width="150" height="150" as="geometry" />
        </mxCell>
        <mxCell id="hlqRaPhQaMiVC_JoWC2D-2" value="&lt;u&gt;&lt;b&gt;Game&lt;/b&gt;&lt;/u&gt;&lt;br&gt;id: uuid&lt;br&gt;date: Date&lt;br&gt;status: Finished/aborted&lt;br&gt;settings: gameSettings" style="ellipse;whiteSpace=wrap;html=1;aspect=fixed;" parent="1" vertex="1">
          <mxGeometry x="530" y="170" width="150" height="150" as="geometry" />
        </mxCell>
        <mxCell id="hlqRaPhQaMiVC_JoWC2D-5" value="" style="curved=1;endArrow=classic;html=1;exitX=1;exitY=0;exitDx=0;exitDy=0;entryX=0;entryY=0;entryDx=0;entryDy=0;" parent="1" source="hlqRaPhQaMiVC_JoWC2D-1" target="hlqRaPhQaMiVC_JoWC2D-2" edge="1">
          <mxGeometry width="50" height="50" relative="1" as="geometry">
            <mxPoint x="180" y="200" as="sourcePoint" />
            <mxPoint x="370" y="200" as="targetPoint" />
            <Array as="points">
              <mxPoint x="330" y="110" />
            </Array>
          </mxGeometry>
        </mxCell>
        <mxCell id="hlqRaPhQaMiVC_JoWC2D-6" value="PLAYED_GAME&lt;br&gt;points: int&lt;br&gt;winner: boolean&lt;br&gt;isStartPlayer: boolean" style="edgeLabel;html=1;align=center;verticalAlign=middle;resizable=0;points=[];" parent="hlqRaPhQaMiVC_JoWC2D-5" vertex="1" connectable="0">
          <mxGeometry x="0.0241" y="-34" relative="1" as="geometry">
            <mxPoint x="3.41" y="-6.06" as="offset" />
          </mxGeometry>
        </mxCell>
        <mxCell id="hlqRaPhQaMiVC_JoWC2D-7" value="&lt;u&gt;&lt;b&gt;League&lt;/b&gt;&lt;/u&gt;&lt;br&gt;id: uuid&lt;br&gt;lague: String&lt;br&gt;cardsOnHand: int&lt;br&gt;pointsToWin: int" style="ellipse;whiteSpace=wrap;html=1;aspect=fixed;" parent="1" vertex="1">
          <mxGeometry x="274" y="310" width="140" height="140" as="geometry" />
        </mxCell>
        <mxCell id="hlqRaPhQaMiVC_JoWC2D-8" value="" style="curved=1;endArrow=classic;html=1;exitX=0;exitY=0.5;exitDx=0;exitDy=0;entryX=0.552;entryY=-0.01;entryDx=0;entryDy=0;entryPerimeter=0;" parent="1" source="hlqRaPhQaMiVC_JoWC2D-2" target="hlqRaPhQaMiVC_JoWC2D-7" edge="1">
          <mxGeometry width="50" height="50" relative="1" as="geometry">
            <mxPoint x="470" y="410" as="sourcePoint" />
            <mxPoint x="660" y="410" as="targetPoint" />
            <Array as="points">
              <mxPoint x="420" y="220" />
            </Array>
          </mxGeometry>
        </mxCell>
        <mxCell id="hlqRaPhQaMiVC_JoWC2D-9" value="IN_LEAGUE" style="edgeLabel;html=1;align=center;verticalAlign=middle;resizable=0;points=[];" parent="hlqRaPhQaMiVC_JoWC2D-8" vertex="1" connectable="0">
          <mxGeometry x="0.1914" y="17" relative="1" as="geometry">
            <mxPoint x="29.43" y="-2" as="offset" />
          </mxGeometry>
        </mxCell>
      </root>
    </mxGraphModel>
  </diagram>
  <diagram name="extended version" id="aNtw5cTRiQmI7jfVZ72B">
    <mxGraphModel dx="1422" dy="827" grid="1" gridSize="10" guides="1" tooltips="1" connect="1" arrows="1" fold="1" page="1" pageScale="1" pageWidth="827" pageHeight="1169" math="0" shadow="0">
      <root>
        <mxCell id="B5gCWZih8PqT4H1TR_IA-0" />
        <mxCell id="B5gCWZih8PqT4H1TR_IA-1" parent="B5gCWZih8PqT4H1TR_IA-0" />
        <mxCell id="B5gCWZih8PqT4H1TR_IA-2" value="&lt;u style=&quot;font-weight: bold&quot;&gt;User&lt;/u&gt;&lt;br&gt;id: uuid&lt;br&gt;userName: String&lt;br&gt;password: String&lt;br&gt;email: String&lt;br&gt;avatar: int" style="ellipse;whiteSpace=wrap;html=1;aspect=fixed;" parent="B5gCWZih8PqT4H1TR_IA-1" vertex="1">
          <mxGeometry x="60" y="170" width="150" height="150" as="geometry" />
        </mxCell>
        <mxCell id="B5gCWZih8PqT4H1TR_IA-3" value="&lt;u&gt;&lt;b&gt;Game&lt;/b&gt;&lt;/u&gt;&lt;br&gt;id: uuid&lt;br&gt;date: Date&lt;br&gt;status: Finished/aborted&lt;br&gt;settings: gameSettings" style="ellipse;whiteSpace=wrap;html=1;aspect=fixed;" parent="B5gCWZih8PqT4H1TR_IA-1" vertex="1">
          <mxGeometry x="490" y="150" width="150" height="150" as="geometry" />
        </mxCell>
        <mxCell id="B5gCWZih8PqT4H1TR_IA-4" value="" style="curved=1;endArrow=classic;html=1;exitX=1;exitY=0;exitDx=0;exitDy=0;entryX=0;entryY=0;entryDx=0;entryDy=0;" parent="B5gCWZih8PqT4H1TR_IA-1" source="B5gCWZih8PqT4H1TR_IA-2" target="B5gCWZih8PqT4H1TR_IA-3" edge="1">
          <mxGeometry width="50" height="50" relative="1" as="geometry">
            <mxPoint x="180" y="200" as="sourcePoint" />
            <mxPoint x="370" y="200" as="targetPoint" />
            <Array as="points">
              <mxPoint x="330" y="110" />
            </Array>
          </mxGeometry>
        </mxCell>
        <mxCell id="B5gCWZih8PqT4H1TR_IA-5" value="PLAYED_GAME&lt;br&gt;points: int&lt;br&gt;winner: boolean&lt;br&gt;isStartPlayer: boolean" style="edgeLabel;html=1;align=center;verticalAlign=middle;resizable=0;points=[];" parent="B5gCWZih8PqT4H1TR_IA-4" vertex="1" connectable="0">
          <mxGeometry x="0.0241" y="-34" relative="1" as="geometry">
            <mxPoint x="3.41" y="-6.06" as="offset" />
          </mxGeometry>
        </mxCell>
        <mxCell id="B5gCWZih8PqT4H1TR_IA-6" value="&lt;u&gt;&lt;b&gt;League&lt;/b&gt;&lt;/u&gt;&lt;br&gt;id: uuid&lt;br&gt;name: String" style="ellipse;whiteSpace=wrap;html=1;aspect=fixed;" parent="B5gCWZih8PqT4H1TR_IA-1" vertex="1">
          <mxGeometry x="274" y="310" width="140" height="140" as="geometry" />
        </mxCell>
        <mxCell id="B5gCWZih8PqT4H1TR_IA-7" value="" style="curved=1;endArrow=classic;html=1;exitX=0;exitY=0.5;exitDx=0;exitDy=0;entryX=0.552;entryY=-0.01;entryDx=0;entryDy=0;entryPerimeter=0;" parent="B5gCWZih8PqT4H1TR_IA-1" source="B5gCWZih8PqT4H1TR_IA-3" target="B5gCWZih8PqT4H1TR_IA-6" edge="1">
          <mxGeometry width="50" height="50" relative="1" as="geometry">
            <mxPoint x="470" y="410" as="sourcePoint" />
            <mxPoint x="660" y="410" as="targetPoint" />
            <Array as="points">
              <mxPoint x="420" y="220" />
            </Array>
          </mxGeometry>
        </mxCell>
        <mxCell id="B5gCWZih8PqT4H1TR_IA-8" value="IN_LEAGUE" style="edgeLabel;html=1;align=center;verticalAlign=middle;resizable=0;points=[];" parent="B5gCWZih8PqT4H1TR_IA-7" vertex="1" connectable="0">
          <mxGeometry x="0.1914" y="17" relative="1" as="geometry">
            <mxPoint x="9.919999999999998" y="-15.52" as="offset" />
          </mxGeometry>
        </mxCell>
        <mxCell id="B5gCWZih8PqT4H1TR_IA-9" value="" style="curved=1;endArrow=classic;html=1;exitX=0.991;exitY=0.377;exitDx=0;exitDy=0;exitPerimeter=0;entryX=0.346;entryY=0.015;entryDx=0;entryDy=0;entryPerimeter=0;" parent="B5gCWZih8PqT4H1TR_IA-1" source="B5gCWZih8PqT4H1TR_IA-2" target="B5gCWZih8PqT4H1TR_IA-6" edge="1">
          <mxGeometry width="50" height="50" relative="1" as="geometry">
            <mxPoint x="80" y="390" as="sourcePoint" />
            <mxPoint x="270" y="390" as="targetPoint" />
            <Array as="points">
              <mxPoint x="290" y="230" />
            </Array>
          </mxGeometry>
        </mxCell>
        <mxCell id="B5gCWZih8PqT4H1TR_IA-10" value="OWNER" style="edgeLabel;html=1;align=center;verticalAlign=middle;resizable=0;points=[];" parent="B5gCWZih8PqT4H1TR_IA-9" vertex="1" connectable="0">
          <mxGeometry x="-0.4523" y="-14" relative="1" as="geometry">
            <mxPoint x="15.03" as="offset" />
          </mxGeometry>
        </mxCell>
        <mxCell id="B5gCWZih8PqT4H1TR_IA-11" value="" style="curved=1;endArrow=classic;html=1;exitX=0.5;exitY=1;exitDx=0;exitDy=0;entryX=0;entryY=0.5;entryDx=0;entryDy=0;" parent="B5gCWZih8PqT4H1TR_IA-1" source="B5gCWZih8PqT4H1TR_IA-2" target="B5gCWZih8PqT4H1TR_IA-6" edge="1">
          <mxGeometry width="50" height="50" relative="1" as="geometry">
            <mxPoint x="84" y="420" as="sourcePoint" />
            <mxPoint x="274" y="420" as="targetPoint" />
            <Array as="points">
              <mxPoint x="174" y="370" />
            </Array>
          </mxGeometry>
        </mxCell>
        <mxCell id="B5gCWZih8PqT4H1TR_IA-12" value="MEMBER_OF" style="edgeLabel;html=1;align=center;verticalAlign=middle;resizable=0;points=[];" parent="B5gCWZih8PqT4H1TR_IA-11" vertex="1" connectable="0">
          <mxGeometry x="-0.0383" y="7" relative="1" as="geometry">
            <mxPoint x="10.17" as="offset" />
          </mxGeometry>
        </mxCell>
        <mxCell id="B5gCWZih8PqT4H1TR_IA-13" value="" style="curved=1;endArrow=classic;html=1;exitX=0;exitY=0.5;exitDx=0;exitDy=0;entryX=0.5;entryY=0;entryDx=0;entryDy=0;" parent="B5gCWZih8PqT4H1TR_IA-1" source="B5gCWZih8PqT4H1TR_IA-2" target="B5gCWZih8PqT4H1TR_IA-2" edge="1">
          <mxGeometry width="50" height="50" relative="1" as="geometry">
            <mxPoint x="30" y="150" as="sourcePoint" />
            <mxPoint x="220" y="150" as="targetPoint" />
            <Array as="points">
              <mxPoint x="20" y="130" />
            </Array>
          </mxGeometry>
        </mxCell>
        <mxCell id="B5gCWZih8PqT4H1TR_IA-14" value="FRIEND" style="edgeLabel;html=1;align=center;verticalAlign=middle;resizable=0;points=[];" parent="B5gCWZih8PqT4H1TR_IA-13" vertex="1" connectable="0">
          <mxGeometry x="0.4137" y="-22" relative="1" as="geometry">
            <mxPoint as="offset" />
          </mxGeometry>
        </mxCell>
        <mxCell id="B5gCWZih8PqT4H1TR_IA-15" value="" style="curved=1;endArrow=classic;html=1;exitX=0;exitY=1;exitDx=0;exitDy=0;" parent="B5gCWZih8PqT4H1TR_IA-1" source="B5gCWZih8PqT4H1TR_IA-2" target="B5gCWZih8PqT4H1TR_IA-6" edge="1">
          <mxGeometry width="50" height="50" relative="1" as="geometry">
            <mxPoint x="100" y="540" as="sourcePoint" />
            <mxPoint x="290" y="540" as="targetPoint" />
            <Array as="points">
              <mxPoint x="70" y="430" />
              <mxPoint x="190" y="490" />
            </Array>
          </mxGeometry>
        </mxCell>
        <mxCell id="B5gCWZih8PqT4H1TR_IA-16" value="INVITATION" style="edgeLabel;html=1;align=center;verticalAlign=middle;resizable=0;points=[];" parent="B5gCWZih8PqT4H1TR_IA-15" vertex="1" connectable="0">
          <mxGeometry x="-0.1629" y="11" relative="1" as="geometry">
            <mxPoint x="29.26" y="26.93" as="offset" />
          </mxGeometry>
        </mxCell>
      </root>
    </mxGraphModel>
  </diagram>
</mxfile>
